<svg width="1em" viewBox="0 0 16 16" xmlns="http://www.w3.org/2000/svg" fill="#515e72">
  <path d="M3.4 10.1a1.7 1.7 0 01-3.4 0c0-1 .8-1.7 1.7-1.7h1.7v1.7z"></path>
  <path d="M4.2 10.1a1.7 1.7 0 013.4 0v4.2a1.7 1.7 0 01-3.4 0v-4.2z"></path>
  <path d="M5.9 3.4a1.7 1.7 0 010-3.4c1 0 1.7.8 1.7 1.7v1.7H5.9z"></path>
  <path d="M5.9 4.2a1.7 1.7 0 010 3.4H1.7a1.7 1.7 0 010-3.4h4.2z"></path>
  <path d="M12.6 5.9a1.7 1.7 0 013.4 0c0 1-.8 1.7-1.7 1.7h-1.7V5.9z"></path>
  <path d="M11.8 5.9a1.7 1.7 0 01-3.4 0V1.7a1.7 1.7 0 013.4 0v4.2z"></path>
  <path d="M10.1 12.6a1.7 1.7 0 010 3.4c-1 0-1.7-.8-1.7-1.7v-1.7h1.7z"></path>
  <path d="M10.1 11.8a1.7 1.7 0 010-3.4h4.2a1.7 1.7 0 010 3.4h-4.2z"></path>
</svg>